<svg width="18" height="22" viewBox="0 0 18 22" fill="none" xmlns="http://www.w3.org/2000/svg">
<path d="M14.5509 11.6149C14.5715 10.01 15.43 8.4914 16.792 7.6508C15.9328 6.4189 14.4937 5.63784 12.9964 5.59081C11.3994 5.42254 9.85122 6.55015 9.03743 6.55015C8.20789 6.55015 6.95494 5.60752 5.60571 5.63539C3.84705 5.69243 2.20754 6.69621 1.35192 8.23975C-0.487337 11.4366 0.88458 16.1348 2.64643 18.7189C3.52792 19.9842 4.55813 21.3976 5.90614 21.3475C7.22525 21.2926 7.71791 20.5031 9.31019 20.5031C10.8877 20.5031 11.3499 21.3475 12.7253 21.3156C14.1407 21.2926 15.0325 20.0447 15.8831 18.7673C16.5165 17.8657 17.0038 16.8693 17.3271 15.8148C15.6637 15.1086 14.5529 13.428 14.5509 11.6149Z" fill="#090909"/>
<path d="M11.9531 3.89141C12.7248 2.96131 13.1051 1.76583 13.013 0.558838C11.8339 0.683162 10.7447 1.24889 9.96255 2.1433C9.19767 3.01719 8.79962 4.19164 8.87487 5.3525C10.0544 5.36469 11.214 4.8143 11.9531 3.89141Z" fill="#090909"/>
</svg>
