<svg xmlns="http://www.w3.org/2000/svg" style="display: none;">

  <symbol id="company-logo">
    <path fill="#f07cf2" style="fill: var(--color1, #f07cf2)" d="M11.357 23.223c-6.199 0-11.223-5.025-11.223-11.223v-7.856c0-0.893 0.355-1.749 0.986-2.381s1.488-0.986 2.381-0.986h7.295v4.924c0 1.123-0.068 2.287-0.658 3.244-0.422 0.685-0.986 1.272-1.655 1.72s-1.425 0.747-2.22 0.877l-0.215 0.035c-0.089 0.030-0.166 0.088-0.22 0.164s-0.084 0.167-0.084 0.261c0 0.094 0.029 0.185 0.084 0.261s0.131 0.133 0.22 0.164l0.215 0.035c1.16 0.189 2.232 0.739 3.063 1.57s1.381 1.903 1.57 3.063l0.035 0.215c0.030 0.089 0.088 0.166 0.164 0.22s0.167 0.084 0.261 0.084c0.094 0 0.185-0.029 0.261-0.084s0.133-0.131 0.164-0.22l0.035-0.215c0.13-0.794 0.429-1.551 0.877-2.22s1.035-1.233 1.72-1.655c0.956-0.589 2.12-0.658 3.244-0.658h4.91c-0.294 5.938-5.2 10.662-11.21 10.662z"></path>
    <path fill="#007dfc" style="fill: var(--color2, #007dfc)" d="M22.582 11.439h-4.924c-1.123 0-2.287-0.068-3.244-0.658-0.747-0.461-1.377-1.090-1.837-1.837-0.589-0.956-0.658-2.12-0.658-3.244v-4.924h7.295c0.893 0 1.749 0.355 2.381 0.986s0.986 1.488 0.986 2.381v7.295zM0.135 22.101c0-0.298 0.118-0.583 0.329-0.794s0.496-0.329 0.794-0.329c0.298 0 0.583 0.118 0.794 0.329s0.329 0.496 0.329 0.794c0 0.298-0.118 0.583-0.329 0.794s-0.496 0.329-0.794 0.329c-0.298 0-0.583-0.118-0.794-0.329s-0.329-0.496-0.329-0.794z"></path>
  </symbol>

  <!-- Add more symbols for each icon you want to include -->

</svg>