<svg xmlns="http://www.w3.org/2000/svg" style="display: none;">

  <symbol id="company-logo">
    <path fill="#f07cf2" style="fill: var(--color1, #f07cf2)" d="M11.357 23.223c-6.199 0-11.223-5.025-11.223-11.223v-7.856c0-0.893 0.355-1.749 0.986-2.381s1.488-0.986 2.381-0.986h7.295v4.924c0 1.123-0.068 2.287-0.658 3.244-0.422 0.685-0.986 1.272-1.655 1.72s-1.425 0.747-2.22 0.877l-0.215 0.035c-0.089 0.030-0.166 0.088-0.22 0.164s-0.084 0.167-0.084 0.261c0 0.094 0.029 0.185 0.084 0.261s0.131 0.133 0.22 0.164l0.215 0.035c1.16 0.189 2.232 0.739 3.063 1.57s1.381 1.903 1.57 3.063l0.035 0.215c0.030 0.089 0.088 0.166 0.164 0.22s0.167 0.084 0.261 0.084c0.094 0 0.185-0.029 0.261-0.084s0.133-0.131 0.164-0.22l0.035-0.215c0.13-0.794 0.429-1.551 0.877-2.22s1.035-1.233 1.72-1.655c0.956-0.589 2.12-0.658 3.244-0.658h4.91c-0.294 5.938-5.2 10.662-11.21 10.662z"></path>
    <path fill="#007dfc" style="fill: var(--color2, #007dfc)" d="M22.582 11.439h-4.924c-1.123 0-2.287-0.068-3.244-0.658-0.747-0.461-1.377-1.090-1.837-1.837-0.589-0.956-0.658-2.12-0.658-3.244v-4.924h7.295c0.893 0 1.749 0.355 2.381 0.986s0.986 1.488 0.986 2.381v7.295zM0.135 22.101c0-0.298 0.118-0.583 0.329-0.794s0.496-0.329 0.794-0.329c0.298 0 0.583 0.118 0.794 0.329s0.329 0.496 0.329 0.794c0 0.298-0.118 0.583-0.329 0.794s-0.496 0.329-0.794 0.329c-0.298 0-0.583-0.118-0.794-0.329s-0.329-0.496-0.329-0.794z"></path>
  </symbol>

  <symbol id="icon-notification">
    <path fill="#fff" style="fill: var(--color1, #fff)" d="M9.553 0.92c-3.803 0-6.745 3.333-6.274 7.107l0.089 0.711c0.13 1.040-0.25 2.080-1.021 2.791-1.597 1.473-2.040 3.819-1.092 5.774l0.116 0.239c0.836 1.723 2.532 2.851 4.427 2.969l0.211 0.361c1.134 1.945 2.902 3.009 4.758 3.009s3.623-1.064 4.758-3.009l0.214-0.367c1.591-0.126 3.042-0.991 3.907-2.35 1.324-2.080 0.973-4.809-0.834-6.487l-0.049-0.046c-0.22-0.204-0.411-0.434-0.569-0.681-0.25-0.391-0.769-0.505-1.16-0.255s-0.505 0.769-0.255 1.16c0.234 0.366 0.516 0.705 0.841 1.008l0.049 0.046c1.213 1.126 1.448 2.958 0.559 4.354-0.629 0.989-1.721 1.588-2.893 1.588h-0.073c-0.003 0-0.006-0-0.009-0-0.007 0-0.014 0-0.021 0h-8.931c-0.010-0-0.020-0-0.030 0h-0.143c-1.382 0-2.642-0.789-3.245-2.032l-0.116-0.239c-0.625-1.289-0.333-2.834 0.72-3.806 1.169-1.079 1.746-2.655 1.548-4.234l-0.089-0.711c-0.346-2.771 1.814-5.218 4.607-5.218h1.907c1.253 0 2.376 0.49 3.206 1.282 0.336 0.32 0.867 0.308 1.188-0.028s0.308-0.867-0.028-1.188c-1.129-1.077-2.662-1.746-4.366-1.746h-1.907zM10.766 22.2c-1.032 0-2.132-0.518-2.983-1.68h5.966c-0.85 1.162-1.951 1.68-2.983 1.68z"></path>
    <path fill="#f53125" style="fill: var(--color2, #f53125)" d="M18.606 7.36c0 1.237-1.003 2.24-2.24 2.24s-2.24-1.003-2.24-2.24 1.003-2.24 2.24-2.24c1.237 0 2.24 1.003 2.24 2.24z"></path>
  </symbol>

  <symbol id="icon-playstore">
    <path fill="#fff" style="fill: var(--color1, #fff)" d="M1.031 1.637v20.725c0 0.045 0.014 0.089 0.039 0.126s0.060 0.066 0.102 0.084c0.042 0.017 0.087 0.022 0.131 0.014s0.085-0.030 0.117-0.062l10.791-10.524-10.791-10.525c-0.032-0.032-0.073-0.053-0.117-0.062s-0.090-0.004-0.131 0.013c-0.042 0.017-0.077 0.046-0.102 0.084s-0.038 0.081-0.039 0.126zM16.736 7.676l-13.539-7.459c-0.233-0.127-0.455 0.189-0.264 0.372l10.606 10.142 3.196-3.055zM2.934 23.411c-0.192 0.183 0.030 0.499 0.264 0.372l0.008-0.005 13.529-7.454-3.196-3.056-10.605 10.143zM22.198 10.682l-3.778-2.081-3.553 3.399 3.553 3.398 3.778-2.079c1.028-0.568 1.028-2.069 0-2.637z"></path>
  </symbol>

  <symbol id="icon-apps-store" viewBox="0 0 21 24">
    <path fill="#fff" style="fill: var(--color1, #fff)" d="M16.813 22.35c-1.225 1.188-2.562 1-3.85 0.438-1.363-0.575-2.613-0.6-4.050 0-1.8 0.775-2.75 0.55-3.825-0.438-6.1-6.288-5.2-15.863 1.725-16.212 1.687 0.087 2.862 0.925 3.85 1 1.475-0.3 2.888-1.162 4.462-1.050 1.888 0.15 3.313 0.9 4.25 2.25-3.9 2.338-2.975 7.475 0.6 8.913-0.712 1.875-1.638 3.738-3.175 5.112l0.012-0.012zM10.538 6.063c-0.188-2.788 2.075-5.088 4.675-5.313 0.362 3.225-2.925 5.625-4.675 5.313z"></path>
  </symbol>

  <symbol id="icon-earned">
    <path fill="#fece25" style="fill: var(--color1, #fece25)" d="M11.381 23.796c-6.286 0-11.381-5.095-11.381-11.381v-7.966c0-0.906 0.36-1.774 1-2.414s1.509-1 2.414-1h7.397v4.993c0 1.139-0.069 2.319-0.667 3.289-0.428 0.695-1 1.29-1.678 1.744s-1.445 0.757-2.251 0.889l-0.218 0.035c-0.090 0.031-0.168 0.089-0.223 0.166s-0.085 0.17-0.085 0.265c0 0.095 0.030 0.188 0.085 0.265s0.133 0.135 0.223 0.166l0.218 0.035c1.177 0.192 2.263 0.749 3.106 1.592s1.4 1.93 1.592 3.106l0.035 0.218c0.031 0.090 0.089 0.168 0.166 0.223s0.17 0.085 0.265 0.085c0.095 0 0.187-0.030 0.265-0.085s0.135-0.133 0.166-0.223l0.035-0.218c0.132-0.805 0.435-1.573 0.889-2.251s1.049-1.25 1.744-1.678c0.97-0.597 2.15-0.667 3.289-0.667h4.979c-0.298 6.021-5.273 10.812-11.367 10.812z"></path>
    <path fill="#fece25" style="fill: var(--color1, #fece25)" d="M22.762 11.846h-4.993c-1.139 0-2.319-0.069-3.289-0.667-0.758-0.467-1.396-1.105-1.863-1.863-0.597-0.97-0.667-2.15-0.667-3.289v-4.993h7.397c0.905 0 1.774 0.36 2.414 1s1 1.509 1 2.414v7.397z"></path>
  </symbol>

  <symbol id="icon-facebook">
    <path fill="#fff" style="fill: var(--color1, #fff)" d="M17.526 9h-3.525v-2c0-1.032 0.084-1.682 1.563-1.682h1.868v-3.18c-0.909-0.094-1.823-0.14-2.738-0.138-2.713 0-4.693 1.657-4.693 4.699v2.301h-3v4l3-0.001v9.001h4v-9.003l3.066-0.001 0.459-3.996z"></path>
  </symbol>

  <symbol id="icon-linkedin">
    <path fill="#fff" style="fill: var(--color1, #fff)" d="M4.001 8.667h3.333v11.333h-3.333v-11.333zM5.657 7.334h-0.019c-0.995 0-1.638-0.741-1.638-1.667 0-0.946 0.663-1.666 1.676-1.666 1.014 0 1.639 0.72 1.657 1.666 0 0.925-0.643 1.667-1.677 1.667zM20.001 20h-3.333v-6.066c0-1.465-0.817-2.465-2.128-2.465-1.001 0-1.542 0.675-1.805 1.327-0.096 0.233-0.067 0.879-0.067 1.205v6h-3.333v-11.333h3.333v1.744c0.481-0.744 1.233-1.744 3.159-1.744 2.385 0 4.174 1.5 4.174 4.849l0.001 6.484z"></path>
  </symbol>

  <symbol id="icon-twitter">
    <path fill="#fff" style="fill: var(--color1, #fff)" d="M21.634 4.031c-0.815 0.385-2.202 1.107-2.899 1.245-0.027 0.007-0.049 0.016-0.075 0.023-0.813-0.802-1.927-1.299-3.16-1.299-2.485 0-4.5 2.015-4.5 4.5 0 0.131-0.011 0.372 0 0.5-3.218 0-5.568-1.679-7.327-3.837-0.235-0.29-0.485-0.139-0.537 0.067-0.117 0.466-0.157 1.245-0.157 1.801 0 1.401 1.095 2.777 2.8 3.63-0.314 0.081-0.66 0.139-1.020 0.139-0.424 0-0.912-0.111-1.339-0.335-0.158-0.083-0.499-0.060-0.398 0.344 0.405 1.619 2.253 2.756 3.904 3.087-0.375 0.221-1.175 0.176-1.543 0.176-0.136 0-0.609-0.032-0.915-0.070-0.279-0.034-0.708 0.038-0.349 0.582 0.771 1.167 2.515 1.9 4.016 1.928-1.382 1.084-3.642 1.48-5.807 1.48-0.438-0.010-0.416 0.489-0.063 0.674 1.597 0.838 4.213 1.334 6.082 1.334 7.43 0 11.653-5.663 11.653-11.001 0-0.086-0.002-0.266-0.005-0.447 0-0.018 0.005-0.035 0.005-0.053 0-0.027-0.008-0.053-0.008-0.080-0.003-0.136-0.006-0.263-0.009-0.329 0.589-0.425 1.491-1.163 1.947-1.728 0.155-0.192 0.030-0.425-0.181-0.352-0.543 0.189-1.482 0.555-2.070 0.625 1.177-0.779 1.759-1.457 2.259-2.21 0.171-0.257-0.043-0.518-0.304-0.394z"></path>
  </symbol>

  <symbol id="icon-arrow-down" viewBox="0 0 40 24">
    <path fill="#666e7d" style="fill: var(--color1, #666e7d)" d="M20.003 23.667c-0.853 0-1.707-0.327-2.357-0.977l-13.333-13.333c-1.303-1.303-1.303-3.41 0-4.713s3.41-1.303 4.713 0l11.017 11.017 10.977-10.6c1.33-1.277 3.433-1.24 4.713 0.083s1.243 3.437-0.080 4.713l-13.333 12.873c-0.65 0.627-1.483 0.937-2.317 0.937z"></path>
  </symbol>

  <symbol id="icon-search">
    <path fill="#666e7d" style="fill: var(--color1, #666e7d)" opacity="0.5" d="M2.667 10.667c0-4.412 3.588-8 8-8s8 3.588 8 8c0 4.412-3.588 8-8 8s-8-3.588-8-8zM23.609 21.724l-4.527-4.528c1.404-1.805 2.251-4.068 2.251-6.529 0-5.881-4.785-10.667-10.667-10.667s-10.667 4.785-10.667 10.667c0 5.881 4.785 10.667 10.667 10.667 2.461 0 4.724-0.847 6.529-2.251l4.528 4.527c0.26 0.26 0.601 0.391 0.943 0.391s0.683-0.131 0.943-0.391c0.521-0.521 0.521-1.364 0-1.885z"></path>
  </symbol>

  <symbol id="icon-arrow-down-2">
    <path fill="none" stroke="#667085" style="stroke: var(--color1, #667085)" stroke-linejoin="round" stroke-linecap="round" stroke-miterlimit="4" stroke-width="2.6667" d="M11.997 2.667v18.667M11.997 21.333l9.333-9.333M11.997 21.333l-9.333-9.333"></path>
  </symbol>

  <symbol id="icon-more-vertical" viewBox="0 0 24 24">
    <path fill="none" stroke="#98a2b3" style="stroke: var(--color3, #98a2b3)" stroke-linejoin="round" stroke-linecap="round" stroke-miterlimit="4" stroke-width="2" d="M12.002 13c0.552 0 1-0.448 1-1s-0.448-1-1-1c-0.552 0-1 0.448-1 1s0.448 1 1 1z"></path>
    <path fill="none" stroke="#98a2b3" style="stroke: var(--color3, #98a2b3)" stroke-linejoin="round" stroke-linecap="round" stroke-miterlimit="4" stroke-width="2" d="M12.002 6c0.552 0 1-0.448 1-1s-0.448-1-1-1c-0.552 0-1 0.448-1 1s0.448 1 1 1z"></path>
    <path fill="none" stroke="#98a2b3" style="stroke: var(--color3, #98a2b3)" stroke-linejoin="round" stroke-linecap="round" stroke-miterlimit="4" stroke-width="2" d="M12.002 20c0.552 0 1-0.448 1-1s-0.448-1-1-1c-0.552 0-1 0.448-1 1s0.448 1 1 1z"></path>
  </symbol>

  <symbol id="icon-arrow-right" viewBox="0 0 26 24">
    <path stroke-linejoin="round" stroke-linecap="round" stroke-miterlimit="4" stroke-width="2.8629" d="M2.858 12h20M22.858 12l-10-10M22.858 12l-10 10"></path>
  </symbol>

  <symbol id="icon-Icon-3" viewBox="0 0 26 24">
    <path stroke-linejoin="round" stroke-linecap="round" stroke-miterlimit="4" stroke-width="2.8629" d="M22.858 12h-20M2.858 12l10 10M2.858 12l10-10"></path>
  </symbol>

  <symbol id="icon-calendar" viewBox="0 0 22 24">
    <path fill="#272a2d" style="fill: var(--color1, #272a2d)" d="M7.852 1.046c0.422 0 0.764 0.342 0.764 0.764v1.285c0.682-0.011 1.44-0.011 2.281-0.011h0.022c0.842 0 1.6 0 2.282 0.011v-1.285c0-0.422 0.342-0.764 0.764-0.764s0.764 0.342 0.764 0.764v1.339c1.541 0.097 2.724 0.346 3.699 1.054 0.497 0.361 0.935 0.799 1.296 1.296 0.817 1.125 1.024 2.528 1.089 4.437 0.030 0.873 0.030 1.89 0.030 3.072v0.022c0 1.182 0 2.198-0.030 3.072-0.065 1.909-0.272 3.312-1.089 4.437-0.361 0.497-0.799 0.935-1.296 1.296-1.125 0.817-2.528 1.024-4.437 1.089-0.873 0.030-1.89 0.030-3.072 0.030h-0.057c-1.871 0-3.338 0-4.502-0.126-1.188-0.129-2.15-0.396-2.972-0.993-0.497-0.361-0.935-0.799-1.296-1.296-0.597-0.822-0.864-1.784-0.993-2.972-0.126-1.164-0.126-2.631-0.126-4.502v-0.057c0-1.182 0-2.198 0.030-3.072 0.065-1.909 0.272-3.312 1.089-4.437 0.361-0.497 0.799-0.935 1.296-1.296 0.974-0.708 2.158-0.958 3.699-1.054v-1.339c0-0.422 0.342-0.764 0.764-0.764zM7.088 4.681c-1.388 0.095-2.189 0.314-2.8 0.759-0.368 0.267-0.691 0.59-0.958 0.958-0.444 0.611-0.663 1.412-0.759 2.8h16.676c-0.095-1.388-0.314-2.189-0.759-2.8-0.267-0.368-0.59-0.691-0.958-0.958-0.611-0.444-1.412-0.663-2.8-0.759v0.186c0 0.422-0.342 0.764-0.764 0.764s-0.764-0.342-0.764-0.764v-0.244c-0.672-0.011-1.429-0.011-2.293-0.011s-1.621 0-2.293 0.011v0.244c0 0.422-0.342 0.764-0.764 0.764s-0.764-0.342-0.764-0.764v-0.186zM19.304 10.726h-16.791c-0.011 0.672-0.011 1.429-0.011 2.293 0 1.927 0.001 3.312 0.117 4.384 0.115 1.058 0.334 1.72 0.71 2.238 0.267 0.368 0.59 0.691 0.958 0.958 0.518 0.376 1.18 0.595 2.238 0.71 1.072 0.116 2.456 0.117 4.384 0.117 0.864 0 1.622 0 2.295-0.011 0.004-0.484 0.019-0.84 0.070-1.16 0.397-2.507 2.363-4.473 4.87-4.87 0.321-0.051 0.677-0.066 1.16-0.070 0.011-0.673 0.011-1.43 0.011-2.295s-0-1.621-0.011-2.293zM19.247 16.843c-0.413 0.005-0.655 0.017-0.864 0.051-1.853 0.293-3.306 1.747-3.6 3.6-0.033 0.209-0.046 0.451-0.050 0.863 1.386-0.096 2.187-0.315 2.797-0.758 0.368-0.267 0.691-0.591 0.958-0.958 0.444-0.611 0.663-1.411 0.758-2.797z"></path>
    <path fill="#0074e0" style="fill: var(--color2, #0074e0)" d="M7.087 14.038c0-0.422 0.342-0.764 0.764-0.764h6.114c0.422 0 0.764 0.342 0.764 0.764s-0.342 0.764-0.764 0.764h-6.114c-0.422 0-0.764-0.342-0.764-0.764z"></path>
  </symbol>

  <symbol id="icon-arrow-left" viewBox="0 0 11 24">
    <path fill="#007dfc" style="fill: var(--color1, #007dfc)" d="M10.275 3.287c0.567-0.562 0.571-1.478 0.009-2.045s-1.478-0.571-2.045-0.009l-3.461 3.43c-1.303 1.292-2.369 2.348-3.124 3.288-0.786 0.978-1.354 1.971-1.506 3.163-0.067 0.523-0.067 1.052 0 1.574 0.152 1.192 0.721 2.185 1.506 3.163 0.756 0.941 1.821 1.997 3.124 3.289l3.461 3.43c0.567 0.562 1.483 0.558 2.045-0.009s0.558-1.483-0.009-2.045l-3.4-3.369c-1.38-1.367-2.326-2.309-2.967-3.106-0.622-0.775-0.835-1.272-0.892-1.718-0.036-0.28-0.036-0.563 0-0.843 0.057-0.446 0.27-0.943 0.892-1.718 0.64-0.797 1.587-1.739 2.967-3.106l3.4-3.369z"></path>
  </symbol>

  <symbol id="icon-arrow-right-2" viewBox="0 0 11 24">
    <path fill="#007dfc" style="fill: var(--color1, #007dfc)" d="M1.203 3.287c-0.567-0.562-0.571-1.478-0.009-2.045s1.478-0.571 2.045-0.009l3.461 3.43c1.303 1.292 2.369 2.348 3.124 3.288 0.786 0.978 1.354 1.971 1.506 3.163 0.067 0.523 0.067 1.052 0 1.574-0.152 1.192-0.721 2.185-1.506 3.163-0.756 0.941-1.821 1.997-3.124 3.289l-3.461 3.43c-0.567 0.562-1.483 0.558-2.045-0.009s-0.558-1.483 0.009-2.045l3.4-3.369c1.38-1.367 2.326-2.309 2.967-3.106 0.622-0.775 0.836-1.272 0.892-1.718 0.036-0.28 0.036-0.563 0-0.843-0.057-0.446-0.27-0.943-0.892-1.718-0.64-0.797-1.587-1.739-2.967-3.106l-3.4-3.369z"></path>
  </symbol>

  <!-- Add more symbols for each icon you want to include -->

</svg>