<svg xmlns="http://www.w3.org/2000/svg" style="display: none;">

  <symbol id="company-logo">
    <path fill="#f07cf2" style="fill: var(--color1, #f07cf2)" d="M11.357 23.223c-6.199 0-11.223-5.025-11.223-11.223v-7.856c0-0.893 0.355-1.749 0.986-2.381s1.488-0.986 2.381-0.986h7.295v4.924c0 1.123-0.068 2.287-0.658 3.244-0.422 0.685-0.986 1.272-1.655 1.72s-1.425 0.747-2.22 0.877l-0.215 0.035c-0.089 0.030-0.166 0.088-0.22 0.164s-0.084 0.167-0.084 0.261c0 0.094 0.029 0.185 0.084 0.261s0.131 0.133 0.22 0.164l0.215 0.035c1.16 0.189 2.232 0.739 3.063 1.57s1.381 1.903 1.57 3.063l0.035 0.215c0.030 0.089 0.088 0.166 0.164 0.22s0.167 0.084 0.261 0.084c0.094 0 0.185-0.029 0.261-0.084s0.133-0.131 0.164-0.22l0.035-0.215c0.13-0.794 0.429-1.551 0.877-2.22s1.035-1.233 1.72-1.655c0.956-0.589 2.12-0.658 3.244-0.658h4.91c-0.294 5.938-5.2 10.662-11.21 10.662z"></path>
    <path fill="#007dfc" style="fill: var(--color2, #007dfc)" d="M22.582 11.439h-4.924c-1.123 0-2.287-0.068-3.244-0.658-0.747-0.461-1.377-1.090-1.837-1.837-0.589-0.956-0.658-2.12-0.658-3.244v-4.924h7.295c0.893 0 1.749 0.355 2.381 0.986s0.986 1.488 0.986 2.381v7.295zM0.135 22.101c0-0.298 0.118-0.583 0.329-0.794s0.496-0.329 0.794-0.329c0.298 0 0.583 0.118 0.794 0.329s0.329 0.496 0.329 0.794c0 0.298-0.118 0.583-0.329 0.794s-0.496 0.329-0.794 0.329c-0.298 0-0.583-0.118-0.794-0.329s-0.329-0.496-0.329-0.794z"></path>
  </symbol>

  <symbol id="icon-notification">
    <path fill="#fff" style="fill: var(--color1, #fff)" d="M9.553 0.92c-3.803 0-6.745 3.333-6.274 7.107l0.089 0.711c0.13 1.040-0.25 2.080-1.021 2.791-1.597 1.473-2.040 3.819-1.092 5.774l0.116 0.239c0.836 1.723 2.532 2.851 4.427 2.969l0.211 0.361c1.134 1.945 2.902 3.009 4.758 3.009s3.623-1.064 4.758-3.009l0.214-0.367c1.591-0.126 3.042-0.991 3.907-2.35 1.324-2.080 0.973-4.809-0.834-6.487l-0.049-0.046c-0.22-0.204-0.411-0.434-0.569-0.681-0.25-0.391-0.769-0.505-1.16-0.255s-0.505 0.769-0.255 1.16c0.234 0.366 0.516 0.705 0.841 1.008l0.049 0.046c1.213 1.126 1.448 2.958 0.559 4.354-0.629 0.989-1.721 1.588-2.893 1.588h-0.073c-0.003 0-0.006-0-0.009-0-0.007 0-0.014 0-0.021 0h-8.931c-0.010-0-0.020-0-0.030 0h-0.143c-1.382 0-2.642-0.789-3.245-2.032l-0.116-0.239c-0.625-1.289-0.333-2.834 0.72-3.806 1.169-1.079 1.746-2.655 1.548-4.234l-0.089-0.711c-0.346-2.771 1.814-5.218 4.607-5.218h1.907c1.253 0 2.376 0.49 3.206 1.282 0.336 0.32 0.867 0.308 1.188-0.028s0.308-0.867-0.028-1.188c-1.129-1.077-2.662-1.746-4.366-1.746h-1.907zM10.766 22.2c-1.032 0-2.132-0.518-2.983-1.68h5.966c-0.85 1.162-1.951 1.68-2.983 1.68z"></path>
    <path fill="#f53125" style="fill: var(--color2, #f53125)" d="M18.606 7.36c0 1.237-1.003 2.24-2.24 2.24s-2.24-1.003-2.24-2.24 1.003-2.24 2.24-2.24c1.237 0 2.24 1.003 2.24 2.24z"></path>
  </symbol>

  <!-- Add more symbols for each icon you want to include -->

</svg>